<svg width="70" height="54" viewBox="0 0 70 54" fill="none" xmlns="http://www.w3.org/2000/svg">
<path d="M60.8094 2.63008C61.3952 2.0443 61.3952 1.09455 60.8094 0.508761C60.2236 -0.0770259 59.2739 -0.0770226 58.6881 0.508761L60.8094 2.63008ZM11.3119 52.1276L60.8094 2.63008L58.6881 0.508761L9.19062 50.0062L11.3119 52.1276Z" fill="black"/>
<path d="M32.6159 27.0099C33.2016 27.5957 34.1514 27.5957 34.7372 27.0099C35.323 26.4242 35.323 25.4744 34.7372 24.8886L32.6159 27.0099ZM7.79768 2.19176L32.6159 27.0099L34.7372 24.8886L9.919 0.0704434L7.79768 2.19176Z" fill="black"/>
<path d="M58.7575 53.1515C59.3433 53.7373 60.2931 53.7373 60.8788 53.1515C61.4646 52.5658 61.4646 51.616 60.8788 51.0302L58.7575 53.1515ZM33.9393 28.3334L58.7575 53.1515L60.8788 51.0302L36.0607 26.212L33.9393 28.3334Z" fill="black"/>
</svg>
