<svg width="72" height="33" viewBox="0 0 72 33" fill="none" xmlns="http://www.w3.org/2000/svg">
<path d="M70 17.8182C70.8284 17.8182 71.5 17.1466 71.5 16.3182C71.5 15.4897 70.8284 14.8182 70 14.8182V17.8182ZM0 17.8182H70V14.8182H0V17.8182Z" fill="white"/>
<path d="M39.4545 3.5C40.283 3.5 40.9545 2.82843 40.9545 2C40.9545 1.17157 40.283 0.5 39.4545 0.5V3.5ZM0 3.5H39.4545V0.5H0V3.5Z" fill="white"/>
<path d="M70 32.1364C70.8284 32.1364 71.5 31.4648 71.5 30.6364C71.5 29.8079 70.8284 29.1364 70 29.1364V32.1364ZM30.5455 32.1364H70V29.1364H30.5455V32.1364Z" fill="white"/>
</svg>
